# xmcd CD database file
#
# Track frame offsets:
#	182
#	15052
#	27305
#	40857
#	55565
#	71390
#	84667
#	97655
#	111482
#	125285
#	139717
#	156985
#	172995
#	208860
#	224310
#	237447
#	252170
#	267952
#	281342
#	293567
#	307385
#
# Disc length: 4319 seconds
#
# Revision: 0
# Processed by: cddbd v1.5.1PL0 Copyright (c) Steve Scherf et al.
# Submitted via: CDex 1.51
#
DISCID=2310dd15
DTITLE=Erroll Garner, Jerry Wiggins, Arnold Ross - The Piano Collection (Vol 1)
DYEAR=1999
DGENRE=Jazz
TTITLE0=Lover Man
TTITLE1=What is this thing called love
TTITLE2=Early in Paris
TTITLE3=These foolish things
TTITLE4=Too Marvelous for words
TTITLE5=Wiggin´with wig
TTITLE6=Have you met Miss Jones
TTITLE7=Three little words
TTITLE8=Why was I born?
TTITLE9=Coffee time
TTITLE10=I Get a kick out of you
TTITLE11=All the things you are
TTITLE12=Ivan Wig-Digs "Chic"
TTITLE13=Jeepers Creepers
TTITLE14=Lalou
TTITLE15=I can dream, can´t I
TTITLE16=Arbijo
TTITLE17=As the time goes by
TTITLE18=Kee Moe
TTITLE19=It´s easy to remember
TTITLE20=Almost like being in love
EXTD=YEAR: 1999
EXTT0=
EXTT1=
EXTT2=
EXTT3=
EXTT4=
EXTT5=
EXTT6=
EXTT7=
EXTT8=
EXTT9=
EXTT10=
EXTT11=
EXTT12=
EXTT13=
EXTT14=
EXTT15=
EXTT16=
EXTT17=
EXTT18=
EXTT19=
EXTT20=
PLAYORDER=
